<svg xmlns="http://www.w3.org/2000/svg" width="1024" height="1024" viewBox="0 0 1024 1024" role="img" aria-label="Family tree genealogy icon">
  <style>
    .bg{fill:#0D1F0D}
    .trunk{fill:#8B5A2B}
    .trunk-dark{fill:#6B3F1D}
    .root{fill:none;stroke:#8B5A2B;stroke-width:34;stroke-linecap:round;stroke-linejoin:round}
    .foliage-1{fill:#228B22}
    .foliage-2{fill:#32CD32}
    .foliage-3{fill:#3CB371}
    .node-line{fill:none;stroke:#D8FFD8;stroke-width:12;stroke-linecap:round;stroke-linejoin:round;opacity:.72}
    .node{fill:#E9FFE9;stroke:#0D1F0D;stroke-width:10}
  </style>

  <rect class="bg" width="1024" height="1024" rx="96"/>

  <g transform="translate(0 18)">
    <path class="root" d="M512 760 C458 798 397 827 329 848"/>
    <path class="root" d="M512 760 C567 799 626 827 696 848"/>
    <path class="root" d="M512 760 C512 804 512 839 512 872"/>

    <path class="trunk" d="M436 840 C454 716 464 619 462 520 C461 455 563 455 562 520 C560 619 570 716 588 840 Z"/>
    <path class="trunk-dark" d="M514 489 C532 533 522 644 526 840 L588 840 C570 716 560 619 562 520 C563 481 530 465 514 489 Z" opacity=".38"/>
    <path class="trunk" d="M479 603 C421 568 384 525 361 474 C351 452 383 435 398 457 C418 487 449 517 482 537 Z"/>
    <path class="trunk" d="M545 607 C606 571 644 525 667 475 C677 453 646 435 631 456 C610 489 580 518 542 540 Z"/>

    <g>
      <circle class="foliage-1" cx="512" cy="360" r="248"/>
      <circle class="foliage-3" cx="334" cy="458" r="170"/>
      <circle class="foliage-3" cx="690" cy="458" r="170"/>
      <circle class="foliage-2" cx="512" cy="542" r="186"/>
      <circle class="foliage-2" cx="416" cy="270" r="142"/>
      <circle class="foliage-3" cx="608" cy="270" r="142"/>
      <circle class="foliage-1" cx="512" cy="226" r="132"/>
    </g>

    <g>
      <path class="node-line" d="M512 307 L416 395 L337 502"/>
      <path class="node-line" d="M512 307 L608 395 L687 502"/>
      <path class="node-line" d="M512 307 L512 502"/>
      <path class="node-line" d="M416 395 L512 502 L608 395"/>
      <circle class="node" cx="512" cy="307" r="34"/>
      <circle class="node" cx="416" cy="395" r="30"/>
      <circle class="node" cx="608" cy="395" r="30"/>
      <circle class="node" cx="337" cy="502" r="28"/>
      <circle class="node" cx="512" cy="502" r="32"/>
      <circle class="node" cx="687" cy="502" r="28"/>
    </g>
  </g>
</svg>